# xmcd CD database file
#
# Track frame offsets:
#	187
#	20507
#	39537
#	57637
#	79172
#	97452
#	124237
#	142055
#	160652
#	181072
#	200287
#	219750
#
# Disc length: 3140 seconds
#
# Revision: 0
# Processed by: cddbd v1.5.1PL2 Copyright (c) Steve Scherf et al.
# Submitted via: CDex 1.51
#
DISCID=aa0c420c
DTITLE=Inst. - JAZZ BIRD SERIES 飛鳥涼作品集 脱都会主義
DYEAR=1991
DGENRE=Jazz
TTITLE0=ひとり咲き
TTITLE1=万里の河
TTITLE2=モーニングムーン
TTITLE3=LOVE SONG
TTITLE4=はじまりはいつも雨
TTITLE5=熱い想い
TTITLE6=恋人はワイン色
TTITLE7=ラプソディ
TTITLE8=太陽と埃の中で
TTITLE9=SAY YES
TTITLE10=WALK
TTITLE11=PRIDE
EXTD=YEAR: 1991
EXTT0=
EXTT1=
EXTT2=
EXTT3=
EXTT4=
EXTT5=
EXTT6=
EXTT7=
EXTT8=
EXTT9=
EXTT10=
EXTT11=
PLAYORDER=
